<svg xmlns="http://www.w3.org/2000/svg" width="18" height="16" fill="none" viewBox="0 0 18 16"><path d="M17.2921 8.72921L11.1046 14.9167C10.9109 15.1104 10.6481 15.2193 10.3741 15.2193C10.1002 15.2193 9.8374 15.1104 9.64367 14.9167C9.44994 14.723 9.3411 14.4602 9.3411 14.1862C9.3411 13.9123 9.44994 13.6495 9.64367 13.4558L14.0703 9.03085H1.4375C1.164 9.03085 0.901693 8.9222 0.708296 8.7288C0.514899 8.53541 0.40625 8.27311 0.40625 7.9996C0.40625 7.7261 0.514899 7.46379 0.708296 7.2704C0.901693 7.077 1.164 6.96835 1.4375 6.96835H14.0703L9.64539 2.54085C9.45166 2.34712 9.34282 2.08436 9.34282 1.81038C9.34282 1.5364 9.45166 1.27365 9.64539 1.07991C9.83912 0.886181 10.1019 0.777344 10.3759 0.777344C10.6498 0.777344 10.9126 0.886181 11.1063 1.07991L17.2938 7.26741C17.39 7.36335 17.4662 7.47734 17.5182 7.60283C17.5702 7.72832 17.5969 7.86284 17.5967 7.99867C17.5966 8.1345 17.5696 8.26896 17.5173 8.39433C17.465 8.5197 17.3885 8.6335 17.2921 8.72921Z"/></svg>