<svg width="18" height="13" viewBox="0 0 18 13" fill="none" xmlns="http://www.w3.org/2000/svg">
<path d="M17.313 0.793007C17.5004 0.992139 17.6011 1.25755 17.5928 1.53087C17.5846 1.80419 17.4681 2.06304 17.269 2.25051L6.36527 12.5273C6.143 12.7366 5.84763 12.8506 5.54236 12.845C5.23709 12.8393 4.94615 12.7144 4.73177 12.497L1.04677 8.75701C0.949193 8.66113 0.871662 8.54679 0.8187 8.42065C0.765737 8.29452 0.7384 8.15911 0.738282 8.02231C0.738163 7.8855 0.765265 7.75004 0.81801 7.62381C0.870754 7.49759 0.948086 7.38312 1.0455 7.28707C1.14292 7.19102 1.25847 7.11532 1.38543 7.06436C1.51239 7.01341 1.64822 6.98822 1.78501 6.99028C1.9218 6.99233 2.05681 7.02158 2.18218 7.07632C2.30756 7.13106 2.42079 7.2102 2.51527 7.30913L5.58703 10.4263L15.8555 0.749007C16.0547 0.561608 16.3201 0.460969 16.5934 0.46922C16.8667 0.477471 17.1256 0.593937 17.313 0.793007Z" fill=""/>
</svg>
