<svg xmlns="http://www.w3.org/2000/svg" width="256" height="256" fill="none" viewBox="0 0 256 256"><g clip-path="url(#clip0_2806_5007)"><path fill="#CCC" d="M256 0H0V256H256V0Z"/><path fill="#F8F8F8" d="M128 155C115.075 155 104.011 150.055 94.8063 140.166C85.6021 130.276 81 118.388 81 104.5C81 90.6125 85.6021 78.724 94.8063 68.8344C104.011 58.9448 115.075 54 128 54C140.925 54 151.99 58.9448 161.194 68.8344C170.398 78.724 175 90.6125 175 104.5C175 118.388 170.398 130.276 161.194 140.166C151.99 150.055 140.925 155 128 155ZM34 256V220.65C34 213.496 35.7156 206.918 39.1466 200.917C42.5776 194.916 47.1287 190.342 52.8 187.194C64.9417 180.671 77.2792 175.777 89.8125 172.511C102.346 169.245 115.075 167.617 128 167.625C140.925 167.625 153.654 169.258 166.188 172.524C178.721 175.789 191.059 180.679 203.2 187.194C208.879 190.35 213.434 194.929 216.865 200.93C220.296 206.931 222.008 213.504 222 220.65V256H34Z"/></g><defs><clipPath id="clip0_2806_5007"><rect width="256" height="256" fill="#fff"/></clipPath></defs></svg>