<svg xmlns="http://www.w3.org/2000/svg" width="20" height="15" fill="none" viewBox="0 0 20 15"><path fill="url(#paint0_linear_1544_1955)" d="M19.6674 0.38476C19.8898 0.621049 20.0092 0.93598 19.9994 1.2603C19.9896 1.58462 19.8515 1.89177 19.6152 2.11422L6.67694 14.3085C6.41319 14.5569 6.06271 14.6922 5.70048 14.6855C5.33825 14.6788 4.99302 14.5306 4.73865 14.2726L0.366056 9.83477C0.250266 9.721 0.158269 9.58533 0.0954236 9.43566C0.0325785 9.28599 0.000140966 9.12531 4.58437e-07 8.96298C-0.000140049 8.80065 0.0320192 8.63992 0.0946052 8.49014C0.157191 8.34036 0.248953 8.20453 0.364546 8.09056C0.48014 7.97659 0.617254 7.88676 0.767903 7.8263C0.918553 7.76584 1.07973 7.73595 1.24204 7.73839C1.40435 7.74083 1.56455 7.77553 1.71332 7.84049C1.86209 7.90544 1.99644 7.99935 2.10857 8.11674L5.75348 11.8155L17.938 0.33255C18.1743 0.110184 18.4892 -0.00923292 18.8135 0.00055786C19.1378 0.0103486 19.445 0.148546 19.6674 0.38476Z"/><defs><linearGradient id="paint0_linear_1544_1955" x1=".625" x2="15.213" y1="14.686" y2="12.888" gradientUnits="userSpaceOnUse"><stop stop-color="#2386F1"/><stop offset="1" stop-color="#46B8FA"/></linearGradient></defs></svg>