<svg width="13" height="9" viewBox="0 0 13 9" fill="none" xmlns="http://www.w3.org/2000/svg">
<path fill-rule="evenodd" clip-rule="evenodd" d="M7.5575 7.74597C7.3856 7.91782 7.15248 8.01436 6.90941 8.01436C6.66635 8.01436 6.43323 7.91782 6.26133 7.74597L1.07575 2.56039C0.988195 2.47583 0.918361 2.37468 0.87032 2.26284C0.822278 2.15101 0.796991 2.03072 0.795933 1.90901C0.794875 1.78729 0.818069 1.66659 0.86416 1.55393C0.91025 1.44128 0.978316 1.33893 1.06438 1.25286C1.15045 1.16679 1.2528 1.09873 1.36545 1.05264C1.47811 1.00654 1.59882 0.983352 1.72053 0.98441C1.84224 0.985467 1.96253 1.01075 2.07437 1.0588C2.1862 1.10684 2.28735 1.17667 2.37191 1.26422L6.90941 5.80172L11.4469 1.26422C11.6198 1.09724 11.8513 1.00485 12.0917 1.00694C12.332 1.00903 12.562 1.10543 12.7319 1.27539C12.9019 1.44535 12.9983 1.67526 13.0004 1.9156C13.0025 2.15595 12.9101 2.3875 12.7431 2.56039L7.5575 7.74597Z" fill=""/>
</svg>
