<svg width="26" height="15" viewBox="0 0 26 15" fill="none" xmlns="http://www.w3.org/2000/svg">
<path d="M24.7 2.64706H1.3C0.955219 2.64706 0.624559 2.50762 0.380761 2.25941C0.136964 2.0112 0 1.67455 0 1.32353C0 0.972508 0.136964 0.635863 0.380761 0.387653C0.624559 0.139443 0.955219 0 1.3 0H24.7C25.0448 0 25.3754 0.139443 25.6192 0.387653C25.863 0.635863 26 0.972508 26 1.32353C26 1.67455 25.863 2.0112 25.6192 2.25941C25.3754 2.50762 25.0448 2.64706 24.7 2.64706ZM20.3667 8.82353H5.63333C5.28855 8.82353 4.95789 8.68409 4.71409 8.43588C4.4703 8.18767 4.33333 7.85102 4.33333 7.5C4.33333 7.14898 4.4703 6.81233 4.71409 6.56412C4.95789 6.31591 5.28855 6.17647 5.63333 6.17647H20.3667C20.7114 6.17647 21.0421 6.31591 21.2859 6.56412C21.5297 6.81233 21.6667 7.14898 21.6667 7.5C21.6667 7.85102 21.5297 8.18767 21.2859 8.43588C21.0421 8.68409 20.7114 8.82353 20.3667 8.82353ZM15.1667 15H10.8333C10.4886 15 10.1579 14.8606 9.91409 14.6123C9.6703 14.3641 9.53333 14.0275 9.53333 13.6765C9.53333 13.3254 9.6703 12.9888 9.91409 12.7406C10.1579 12.4924 10.4886 12.3529 10.8333 12.3529H15.1667C15.5114 12.3529 15.8421 12.4924 16.0859 12.7406C16.3297 12.9888 16.4667 13.3254 16.4667 13.6765C16.4667 14.0275 16.3297 14.3641 16.0859 14.6123C15.8421 14.8606 15.5114 15 15.1667 15Z" fill=""/>
</svg>
