<svg width="26" height="26" viewBox="0 0 26 26" fill="none" xmlns="http://www.w3.org/2000/svg">
<path d="M23.622 10.8796H22.7493V10.8346H12.9993V15.168H19.1218C18.2286 17.6905 15.8285 19.5013 12.9993 19.5013C9.40972 19.5013 6.49935 16.5909 6.49935 13.0013C6.49935 9.41168 9.40972 6.5013 12.9993 6.5013C14.6563 6.5013 16.1638 7.12639 17.3116 8.14743L20.3758 5.08322C18.4409 3.28001 15.8528 2.16797 12.9993 2.16797C7.01664 2.16797 2.16602 7.01859 2.16602 13.0013C2.16602 18.984 7.01664 23.8346 12.9993 23.8346C18.9821 23.8346 23.8327 18.984 23.8327 13.0013C23.8327 12.2749 23.7579 11.5659 23.622 10.8796Z" fill="#FFC107"/>
<path d="M3.41602 7.95893L6.97531 10.5692C7.93839 8.1848 10.2708 6.5013 13.0003 6.5013C14.6572 6.5013 16.1647 7.12639 17.3125 8.14743L20.3767 5.08322C18.4418 3.28001 15.8538 2.16797 13.0003 2.16797C8.83918 2.16797 5.2306 4.51718 3.41602 7.95893Z" fill="#FF3D00"/>
<path d="M13.0008 23.8327C15.7991 23.8327 18.3417 22.7619 20.264 21.0204L16.9111 18.1831C15.7869 19.0381 14.4132 19.5005 13.0008 19.4994C10.1831 19.4994 7.79053 17.7027 6.8892 15.1953L3.35645 17.9172C5.14936 21.4256 8.79045 23.8327 13.0008 23.8327Z" fill="#4CAF50"/>
<path d="M23.6226 10.877H22.75V10.832H13V15.1654H19.1225C18.6952 16.3659 17.9256 17.415 16.9087 18.183L16.9103 18.1819L20.2632 21.0192C20.026 21.2347 23.8333 18.4154 23.8333 12.9987C23.8333 12.2723 23.7586 11.5633 23.6226 10.877Z" fill="#1976D2"/>
</svg>
