<svg xmlns="http://www.w3.org/2000/svg" width="10" height="10" fill="none" viewBox="0 0 10 10"><path fill="url(#paint0_linear_1798_2026)" d="M9.16872 5.32473C9.44164 5.05456 9.65631 4.73008 9.79918 4.37174C9.94205 4.0134 10.01 3.62897 9.99881 3.24271C9.98246 2.66012 9.78761 2.09709 9.44123 1.63156C9.09485 1.16603 8.61407 0.821028 8.06546 0.644317C7.51685 0.467606 6.92754 0.467927 6.37911 0.645237C5.83069 0.822547 5.35028 1.16807 5.0044 1.63398C4.77578 1.32258 4.48594 1.06247 4.15314 0.870038C3.82034 0.677604 3.45179 0.557012 3.07069 0.515856C2.6896 0.474701 2.30421 0.513873 1.9388 0.630907C1.57339 0.74794 1.23588 0.9403 0.947512 1.19587C0.659146 1.45144 0.426176 1.76469 0.26327 2.11589C0.100365 2.46709 0.0110547 2.84863 0.000962718 3.23649C-0.00912929 3.62435 0.0602158 4.01012 0.204631 4.36952C0.349047 4.72891 0.565405 5.05414 0.84008 5.32473L5.0044 9.5L9.16872 5.32473Z"/><defs><linearGradient id="paint0_linear_1798_2026" x1=".313" x2="7.643" y1="9.5" y2="8.763" gradientUnits="userSpaceOnUse"><stop stop-color="#2386F1"/><stop offset="1" stop-color="#46B8FA"/></linearGradient></defs></svg>