<svg width="28" height="28" viewBox="0 0 28 28" fill="none" xmlns="http://www.w3.org/2000/svg">
<path d="M2 14H3.33333M14 2V3.33333M24.6667 14H26M5.46667 5.46667L6.4 6.4M22.5333 5.46667L21.6 6.4M10.9333 20.6667H17.0667M10 19.3333C8.88063 18.4938 8.05378 17.3234 7.63658 15.9878C7.21938 14.6522 7.23297 13.2192 7.67545 11.8918C8.11792 10.5644 8.96683 9.40986 10.1019 8.59172C11.237 7.77358 12.6008 7.33333 14 7.33333C15.3992 7.33333 16.763 7.77358 17.8981 8.59172C19.0332 9.40986 19.8821 10.5644 20.3246 11.8918C20.767 13.2192 20.7806 14.6522 20.3634 15.9878C19.9462 17.3234 19.1194 18.4938 18 19.3333C17.4794 19.8486 17.0875 20.4793 16.8558 21.1742C16.6242 21.8691 16.5594 22.6087 16.6667 23.3333C16.6667 24.0406 16.3857 24.7189 15.8856 25.219C15.3855 25.719 14.7072 26 14 26C13.2928 26 12.6145 25.719 12.1144 25.219C11.6143 24.7189 11.3333 24.0406 11.3333 23.3333C11.4406 22.6087 11.3758 21.8691 11.1442 21.1742C10.9125 20.4793 10.5206 19.8486 10 19.3333Z" stroke="url(#paint0_linear_1485_1816)" stroke-width="2.66667" stroke-linecap="round" stroke-linejoin="round"/>
<defs>
<linearGradient id="paint0_linear_1485_1816" x1="2.75" y1="26" x2="20.3778" y2="24.4046" gradientUnits="userSpaceOnUse">
<stop stop-color="#2386F1"/>
<stop offset="1" stop-color="#46B8FA"/>
</linearGradient>
</defs>
</svg>
