<svg width="21" height="20" viewBox="0 0 21 20" fill="none" xmlns="http://www.w3.org/2000/svg">
<path d="M18.5003 10.5756C18.9918 10.095 19.3785 9.51769 19.6358 8.88019C19.8931 8.24268 20.0155 7.55877 19.9953 6.87159C19.9659 5.83515 19.6149 4.83349 18.9911 4.00529C18.3673 3.17708 17.5014 2.56331 16.5133 2.24893C15.5253 1.93456 14.4639 1.93513 13.4762 2.25057C12.4885 2.56601 11.6232 3.18072 11.0003 4.00959C10.5885 3.4556 10.0666 2.99285 9.46718 2.6505C8.8678 2.30815 8.20403 2.09361 7.51767 2.0204C6.83131 1.94718 6.13722 2.01687 5.47911 2.22508C4.82101 2.43328 4.21314 2.7755 3.69379 3.23017C3.17444 3.68485 2.75485 4.24213 2.46146 4.86693C2.16806 5.49173 2.00721 6.17051 1.98904 6.86053C1.97086 7.55055 2.09575 8.23685 2.35585 8.87623C2.61594 9.51561 3.00561 10.0942 3.5003 10.5756L11.0003 18.0036L18.5003 10.5756Z" stroke-width="2" stroke-linejoin="round"/>
</svg>
