<svg xmlns="http://www.w3.org/2000/svg" width="20" height="18" fill="none" viewBox="0 0 20 18"><path stroke-linecap="round" stroke-linejoin="round" stroke-width="1.833" d="M11.8333 5.33268V3.49935C11.8333 3.01312 11.6402 2.5468 11.2964 2.20299C10.9525 1.85917 10.4862 1.66602 10 1.66602H3.58333C3.0971 1.66602 2.63079 1.85917 2.28697 2.20299C1.94315 2.5468 1.75 3.01312 1.75 3.49935V14.4993C1.75 14.9856 1.94315 15.4519 2.28697 15.7957C2.63079 16.1395 3.0971 16.3327 3.58333 16.3327H10C10.4862 16.3327 10.9525 16.1395 11.2964 15.7957C11.6402 15.4519 11.8333 14.9856 11.8333 14.4993V12.666"/><path stroke-linecap="round" stroke-linejoin="round" stroke-width="1.833" d="M7.25 9H18.25M18.25 9L15.5 6.25M18.25 9L15.5 11.75"/></svg>