<svg xmlns="http://www.w3.org/2000/svg" width="18" height="18" fill="none" viewBox="0 0 18 18"><path fill="#fff" d="M17.5938 9C17.5938 9.2735 17.4851 9.53581 17.2917 9.7292C17.0983 9.9226 16.836 10.0312 16.5625 10.0312H10.0312V16.5625C10.0312 16.836 9.9226 17.0983 9.7292 17.2917C9.53581 17.4851 9.2735 17.5938 9 17.5938C8.7265 17.5938 8.46419 17.4851 8.2708 17.2917C8.0774 17.0983 7.96875 16.836 7.96875 16.5625V10.0312H1.4375C1.164 10.0312 0.901693 9.9226 0.708296 9.7292C0.514899 9.53581 0.40625 9.2735 0.40625 9C0.40625 8.7265 0.514899 8.46419 0.708296 8.2708C0.901693 8.0774 1.164 7.96875 1.4375 7.96875H7.96875V1.4375C7.96875 1.164 8.0774 0.901693 8.2708 0.708296C8.46419 0.514899 8.7265 0.40625 9 0.40625C9.2735 0.40625 9.53581 0.514899 9.7292 0.708296C9.9226 0.901693 10.0312 1.164 10.0312 1.4375V7.96875H16.5625C16.836 7.96875 17.0983 8.0774 17.2917 8.2708C17.4851 8.46419 17.5938 8.7265 17.5938 9Z"/></svg>