<svg width="18" height="18" viewBox="0 0 18 18" fill="none" xmlns="http://www.w3.org/2000/svg">
<path fill-rule="evenodd" clip-rule="evenodd" d="M17.0899 0C17.3313 0 17.5628 0.0958868 17.7334 0.266566C17.9041 0.437245 18 0.668736 18 0.910112V9C18 9.24138 17.9041 9.47287 17.7334 9.64355C17.5628 9.81423 17.3313 9.91011 17.0899 9.91011C16.8485 9.91011 16.617 9.81423 16.4463 9.64355C16.2757 9.47287 16.1798 9.24138 16.1798 9V3.10652L3.10652 16.1798H9C9.24138 16.1798 9.47287 16.2757 9.64355 16.4463C9.81423 16.617 9.91011 16.8485 9.91011 17.0899C9.91011 17.3313 9.81423 17.5628 9.64355 17.7334C9.47287 17.9041 9.24138 18 9 18H0.910112C0.668736 18 0.437245 17.9041 0.266566 17.7334C0.0958868 17.5628 0 17.3313 0 17.0899V9C-3.5619e-09 8.88048 0.023541 8.76214 0.0692784 8.65172C0.115016 8.5413 0.182054 8.44096 0.266566 8.35645C0.351078 8.27194 0.451408 8.2049 0.561827 8.15917C0.672247 8.11343 0.790595 8.08989 0.910112 8.08989C1.02963 8.08989 1.14798 8.11343 1.2584 8.15917C1.36882 8.2049 1.46915 8.27194 1.55366 8.35645C1.63817 8.44096 1.70521 8.5413 1.75095 8.65172C1.79668 8.76214 1.82022 8.88048 1.82022 9V14.8935L14.8935 1.82022H9C8.75862 1.82022 8.52713 1.72434 8.35645 1.55366C8.18577 1.38298 8.08989 1.15149 8.08989 0.910112C8.08989 0.668736 8.18577 0.437245 8.35645 0.266566C8.52713 0.0958868 8.75862 0 9 0H17.0899Z" fill="#382E6D"/>
</svg>
