<svg width="21" height="21" viewBox="0 0 21 21" fill="none" xmlns="http://www.w3.org/2000/svg">
<path fill-rule="evenodd" clip-rule="evenodd" d="M5.18546 0.639412C6.20459 0.217272 7.2969 0 8.4 0C9.5031 0 10.5954 0.217272 11.6145 0.639412C12.6337 1.06155 13.5597 1.68029 14.3397 2.4603C15.1197 3.24031 15.7385 4.16632 16.1606 5.18546C16.5827 6.20459 16.8 7.2969 16.8 8.4C16.8 9.5031 16.5827 10.5954 16.1606 11.6145C15.8731 12.3087 15.4943 12.9596 15.0356 13.5506L20.6925 19.2075C21.1025 19.6176 21.1025 20.2824 20.6925 20.6925C20.2824 21.1025 19.6176 21.1025 19.2075 20.6925L13.5506 15.0356C12.9596 15.4943 12.3087 15.8731 11.6145 16.1606C10.5954 16.5827 9.5031 16.8 8.4 16.8C7.2969 16.8 6.20459 16.5827 5.18546 16.1606C4.16632 15.7385 3.24031 15.1197 2.4603 14.3397C1.68029 13.5597 1.06155 12.6337 0.639412 11.6145C0.217272 10.5954 0 9.5031 0 8.4C0 7.2969 0.217272 6.20459 0.639412 5.18546C1.06155 4.16632 1.68029 3.24032 2.4603 2.4603C3.24032 1.68029 4.16632 1.06155 5.18546 0.639412ZM8.4 2.1C7.57267 2.1 6.75345 2.26295 5.98909 2.57956C5.22474 2.89616 4.53024 3.36022 3.94523 3.94523C3.36022 4.53024 2.89616 5.22474 2.57956 5.98909C2.26295 6.75345 2.1 7.57267 2.1 8.4C2.1 9.22733 2.26295 10.0466 2.57956 10.8109C2.89616 11.5753 3.36022 12.2698 3.94523 12.8548C4.53024 13.4398 5.22474 13.9038 5.98909 14.2204C6.75345 14.537 7.57267 14.7 8.4 14.7C9.22733 14.7 10.0466 14.537 10.8109 14.2204C11.5753 13.9038 12.2698 13.4398 12.8548 12.8548C13.4398 12.2698 13.9038 11.5753 14.2204 10.8109C14.537 10.0466 14.7 9.22733 14.7 8.4C14.7 7.57267 14.537 6.75345 14.2204 5.98909C13.9038 5.22474 13.4398 4.53024 12.8548 3.94523C12.2698 3.36022 11.5753 2.89616 10.8109 2.57956C10.0466 2.26295 9.22733 2.1 8.4 2.1Z" fill="#382E6D"/>
</svg>
