<svg xmlns="http://www.w3.org/2000/svg" width="20" height="20" fill="none" viewBox="0 0 20 20"><path fill-rule="evenodd" d="M11.2961 0.925447C10.9523 0.58175 10.4861 0.388672 9.99996 0.388672C9.51382 0.388672 9.04759 0.58175 8.70379 0.925447L6.96213 2.66711H4.49996C4.01373 2.66711 3.54741 2.86027 3.2036 3.20408C2.85978 3.5479 2.66663 4.01422 2.66663 4.50045V6.96261L0.924959 8.70428C0.581262 9.04808 0.388184 9.51431 0.388184 10.0004C0.388184 10.4866 0.581262 10.9528 0.924959 11.2966L2.66663 13.0383V15.5004C2.66663 15.9867 2.85978 16.453 3.2036 16.7968C3.54741 17.1406 4.01373 17.3338 4.49996 17.3338H6.96213L8.70379 19.0754C9.04759 19.4191 9.51382 19.6122 9.99996 19.6122C10.4861 19.6122 10.9523 19.4191 11.2961 19.0754L13.0378 17.3338H15.5C15.9862 17.3338 16.4525 17.1406 16.7963 16.7968C17.1401 16.453 17.3333 15.9867 17.3333 15.5004V13.0383L19.075 11.2966C19.4187 10.9528 19.6117 10.4866 19.6117 10.0004C19.6117 9.51431 19.4187 9.04808 19.075 8.70428L17.3333 6.96261V4.50045C17.3333 4.01422 17.1401 3.5479 16.7963 3.20408C16.4525 2.86027 15.9862 2.66711 15.5 2.66711H13.0378L11.2961 0.925447ZM9.99996 2.22345L11.7416 3.96511C12.0854 4.30806 12.5513 4.50059 13.0369 4.50045H15.5V6.96261C15.4999 7.20351 15.5473 7.44205 15.6395 7.66461C15.7316 7.88717 15.8668 8.08939 16.0371 8.2597L17.7788 10.0014L16.0371 11.7421C15.6933 12.0859 15.5001 12.5521 15.5 13.0383V15.5004H13.0378C12.7969 15.5004 12.5584 15.5478 12.3358 15.64C12.1132 15.7321 11.911 15.8673 11.7407 16.0376L9.99904 17.7793L8.25829 16.0376C7.91456 15.6938 7.44832 15.5006 6.96213 15.5004H4.49996V13.0383C4.50003 12.7974 4.45262 12.5588 4.36045 12.3363C4.26828 12.1137 4.13315 11.9115 3.96279 11.7412L2.22113 10.0004L3.96279 8.25878C4.30641 7.91527 4.49961 7.4494 4.49996 6.96353V4.50045H6.96213C7.44832 4.50034 7.91456 4.30712 8.25829 3.96328L9.99996 2.22161V2.22345ZM8.16663 10.0004C8.16663 9.51422 8.35978 9.0479 8.7036 8.70409C9.04741 8.36027 9.51373 8.16711 9.99996 8.16711C10.4862 8.16711 10.9525 8.36027 11.2963 8.70409C11.6401 9.0479 11.8333 9.51422 11.8333 10.0004C11.8333 10.4867 11.6401 10.953 11.2963 11.2968C10.9525 11.6406 10.4862 11.8338 9.99996 11.8338C9.51373 11.8338 9.04741 11.6406 8.7036 11.2968C8.35978 10.953 8.16663 10.4867 8.16663 10.0004ZM9.99996 6.33378C9.0275 6.33378 8.09487 6.72009 7.40723 7.40772C6.7196 8.09536 6.33329 9.02799 6.33329 10.0004C6.33329 10.9729 6.7196 11.9055 7.40723 12.5932C8.09487 13.2808 9.0275 13.6671 9.99996 13.6671C10.9724 13.6671 11.9051 13.2808 12.5927 12.5932C13.2803 11.9055 13.6666 10.9729 13.6666 10.0004C13.6666 9.02799 13.2803 8.09536 12.5927 7.40772C11.9051 6.72009 10.9724 6.33378 9.99996 6.33378Z" clip-rule="evenodd"/></svg>