<svg xmlns="http://www.w3.org/2000/svg" width="16" height="16" fill="none" viewBox="0 0 16 16"><path fill-rule="evenodd" d="M2.07019 0.320866C1.84356 0.109688 1.5438 -0.00527844 1.23408 0.000186258C0.924357 0.00565096 0.628846 0.131121 0.409805 0.350162C0.190764 0.569203 0.0652943 0.864713 0.0598296 1.17444C0.0543649 1.48416 0.169332 1.78391 0.38051 2.01054L6.31032 7.94036L0.38051 13.8702C0.26305 13.9796 0.168839 14.1116 0.103497 14.2583C0.0381541 14.4049 0.00301832 14.5632 0.000186058 14.7237C-0.0026462 14.8843 0.0268827 15.0437 0.0870114 15.1926C0.14714 15.3414 0.236636 15.4767 0.350162 15.5902C0.463687 15.7037 0.598915 15.7932 0.747779 15.8533C0.896643 15.9135 1.05609 15.943 1.21662 15.9402C1.37714 15.9373 1.53545 15.9022 1.6821 15.8369C1.82875 15.7715 1.96074 15.6773 2.07019 15.5598L8 9.63003L13.9298 15.5598C14.0393 15.6773 14.1712 15.7715 14.3179 15.8369C14.4645 15.9022 14.6229 15.9373 14.7834 15.9402C14.9439 15.943 15.1034 15.9135 15.2522 15.8533C15.4011 15.7932 15.5363 15.7037 15.6498 15.5902C15.7634 15.4767 15.8529 15.3414 15.913 15.1926C15.9731 15.0437 16.0026 14.8843 15.9998 14.7237C15.997 14.5632 15.9618 14.4049 15.8965 14.2583C15.8312 14.1116 15.7369 13.9796 15.6195 13.8702L9.68968 7.94036L15.6195 2.01054C15.8307 1.78391 15.9456 1.48416 15.9402 1.17444C15.9347 0.864713 15.8092 0.569203 15.5902 0.350162C15.3712 0.131121 15.0756 0.00565096 14.7659 0.000186258C14.4562 -0.00527844 14.1564 0.109688 13.9298 0.320866L8 6.25068L2.07019 0.320866Z" clip-rule="evenodd"/></svg>